<svg width="145" height="47" viewBox="0 0 145 47" fill="none" xmlns="http://www.w3.org/2000/svg">
<path d="M13.928 44.7207V42.4847H13.2988V41.8884H13.928V40.8956H14.6356V41.8884H15.4082V42.4847H14.6356V44.5717C14.6356 44.8266 14.7624 45.0189 15.0068 45.0189C15.149 45.0187 15.2859 44.9654 15.39 44.8698L15.5711 45.3811C15.3656 45.5503 15.1016 45.6342 14.8348 45.6152C14.2358 45.6152 13.928 45.2917 13.928 44.7207Z" fill="#384B5E"/>
<path d="M21.8069 41.799C22.9491 41.799 23.6582 42.6502 23.6582 43.7637V43.9292H20.6497C20.6722 44.2472 20.8201 44.5437 21.0616 44.755C21.3032 44.9663 21.619 45.0755 21.9412 45.0591C22.3583 45.062 22.7611 44.9086 23.0683 44.6298L23.3987 45.077C22.9799 45.4417 22.4358 45.6342 21.8778 45.6152C20.7432 45.6152 19.9164 44.8474 19.9164 43.7041C19.9099 43.4553 19.9541 43.2078 20.0464 42.9762C20.1386 42.7446 20.277 42.5337 20.4533 42.356C20.6297 42.1783 20.8404 42.0374 21.0729 41.9417C21.3054 41.846 21.555 41.7975 21.8069 41.799ZM20.6406 43.4387H22.9657C22.9644 43.2916 22.9331 43.1462 22.8737 43.0112C22.8142 42.8763 22.7278 42.7546 22.6196 42.6534C22.5114 42.5522 22.3837 42.4736 22.2441 42.4224C22.1044 42.3711 21.9557 42.3482 21.8069 42.355C21.5077 42.3501 21.2184 42.4607 21.0005 42.6634C20.7827 42.8661 20.6536 43.1449 20.6406 43.4402V43.4387Z" fill="#384B5E"/>
<path d="M30.1898 41.799C30.908 41.799 31.341 42.0852 31.6172 42.44L31.1434 42.8529C31.0397 42.7082 30.9011 42.5915 30.74 42.5134C30.579 42.4353 30.4007 42.3983 30.2215 42.4057C29.4671 42.4057 28.9933 42.9558 28.9933 43.7086C28.9933 44.4614 29.4731 45.0174 30.2215 45.0174C30.4005 45.0232 30.5782 44.9855 30.739 44.9075C30.8997 44.8295 31.0386 44.7137 31.1434 44.5702L31.6172 44.9846C31.341 45.3379 30.908 45.6241 30.1898 45.6241C29.933 45.6339 29.6769 45.5912 29.4376 45.4987C29.1982 45.4062 28.9808 45.2658 28.7989 45.0864C28.617 44.907 28.4746 44.6924 28.3806 44.4561C28.2866 44.2197 28.243 43.9668 28.2525 43.713C28.2525 42.6129 29.0401 41.799 30.1898 41.799Z" fill="#384B5E"/>
<path d="M38.9047 45.5257V43.1853C38.9047 42.5891 38.5818 42.4012 38.0929 42.4012C37.8897 42.4069 37.6903 42.4572 37.5092 42.5485C37.3281 42.6398 37.1698 42.7697 37.0458 42.9289V45.5257H36.3367V40.5051H37.0458V42.4012C37.217 42.2158 37.4249 42.0672 37.6567 41.9647C37.8885 41.8621 38.1392 41.8077 38.3932 41.8049C39.2034 41.8049 39.6138 42.197 39.6138 42.9647V45.5257H38.9047Z" fill="#384B5E"/>
<path d="M50.5814 46.3381C50.682 46.3764 50.7888 46.3966 50.8967 46.3978C51.0156 46.4093 51.135 46.3806 51.2353 46.3165C51.3356 46.2523 51.4109 46.1564 51.4489 46.0445L51.6692 45.563L50.1016 41.8884H50.856L52.054 44.7431L53.2369 41.8884H54.0003L52.1264 46.2114C51.882 46.7839 51.464 46.9866 50.9118 46.994C50.7635 46.9918 50.6158 46.9744 50.4712 46.9419L50.5814 46.3381Z" fill="#384B5E"/>
<path d="M60.1866 41.799C61.3287 41.799 62.0379 42.6502 62.0379 43.7637V43.9292H59.0278C59.0507 44.247 59.1987 44.5433 59.4402 44.7545C59.6816 44.9658 59.9973 45.0751 60.3193 45.0591C60.7365 45.0623 61.1394 44.9088 61.4464 44.6298L61.7769 45.077C61.3564 45.444 60.809 45.6367 60.2484 45.6151C59.1153 45.6151 58.2794 44.8474 58.2794 43.7041C58.2729 43.4539 58.3176 43.205 58.4109 42.9723C58.5041 42.7396 58.644 42.528 58.8221 42.35C59.0003 42.1721 59.2129 42.0316 59.4474 41.9369C59.6819 41.8422 59.9333 41.7953 60.1866 41.799ZM59.0203 43.4387H61.3438C61.3428 43.2916 61.3117 43.1462 61.2524 43.0113C61.1931 42.8764 61.1068 42.7547 60.9987 42.6535C60.8907 42.5523 60.763 42.4737 60.6235 42.4224C60.4839 42.3711 60.3353 42.3482 60.1866 42.355C59.8873 42.3497 59.5977 42.4602 59.3798 42.663C59.1618 42.8658 59.0328 43.1447 59.0203 43.4402V43.4387Z" fill="#384B5E"/>
<path d="M69.2152 45.5257V45.1262C69.0535 45.2887 68.8593 45.4161 68.645 45.5002C68.4307 45.5844 68.2009 45.6236 67.9704 45.6151C67.3398 45.6151 66.6472 45.2097 66.6472 44.4121C66.6472 43.5833 67.3322 43.2196 67.9704 43.2196C68.4819 43.2196 68.924 43.3776 69.2152 43.7011V43.1048C69.2152 42.6576 68.829 42.3818 68.2858 42.3818C68.0724 42.3818 67.8612 42.4244 67.6649 42.5072C67.4686 42.5899 67.2913 42.7111 67.1436 42.8633L66.8419 42.3967C67.0495 42.2009 67.2941 42.0474 67.5618 41.9451C67.8295 41.8428 68.115 41.7936 68.402 41.8005C69.2288 41.8005 69.9304 42.1478 69.9304 43.0735V45.5257H69.2152ZM69.2152 44.111C69.0946 43.9737 68.9442 43.8651 68.7751 43.7934C68.6061 43.7216 68.4228 43.6885 68.239 43.6966C67.726 43.6966 67.3639 43.9948 67.3639 44.4196C67.3639 44.8444 67.726 45.1411 68.239 45.1411C68.4227 45.149 68.6058 45.116 68.7747 45.0446C68.9437 44.9731 69.0943 44.8649 69.2152 44.7282V44.111Z" fill="#384B5E"/>
<path d="M74.9985 45.5257V41.8884H75.7077V42.4459C75.8538 42.2543 76.0413 42.0973 76.2567 41.9864C76.472 41.8755 76.7097 41.8135 76.9524 41.8049V42.4907C76.872 42.4747 76.7901 42.4672 76.708 42.4683C76.5128 42.4796 76.3223 42.5325 76.1496 42.6234C75.977 42.7142 75.8262 42.8408 75.7077 42.9945V45.5287L74.9985 45.5257Z" fill="#384B5E"/>
<path d="M81.6087 44.5538C81.9518 44.8811 82.4083 45.0672 82.8852 45.074C83.4208 45.074 83.7045 44.8624 83.7045 44.5538C83.7045 44.193 83.2714 44.0723 82.7826 43.9679C82.1368 43.8189 81.3809 43.6594 81.3809 42.8753C81.3809 42.2969 81.9014 41.799 82.8309 41.799C83.3639 41.782 83.8831 41.9683 84.2809 42.3192L83.9655 42.7933C83.8193 42.6456 83.6435 42.5297 83.4495 42.4527C83.2555 42.3757 83.0474 42.3394 82.8384 42.3461C82.3571 42.3461 82.0584 42.5264 82.0584 42.8201C82.0584 43.1361 82.4688 43.242 82.941 43.3478C83.6034 43.4894 84.391 43.6638 84.391 44.4986C84.391 45.1232 83.8554 45.6122 82.855 45.6122C82.2168 45.6122 81.657 45.4244 81.2708 45.0487L81.6087 44.5538Z" fill="#384B5E"/>
<path d="M97.5477 45.5257V45.1262C97.386 45.2887 97.1918 45.4161 96.9775 45.5002C96.7632 45.5844 96.5335 45.6236 96.303 45.6151C95.6738 45.6151 94.9797 45.2097 94.9797 44.4121C94.9797 43.5833 95.6647 43.2196 96.303 43.2196C96.816 43.2196 97.2565 43.3776 97.5477 43.7011V43.1048C97.5477 42.6576 97.163 42.3818 96.6183 42.3818C96.4049 42.3819 96.1938 42.4247 95.9975 42.5074C95.8012 42.5901 95.6239 42.7112 95.4761 42.8633L95.1744 42.3967C95.3816 42.2008 95.626 42.0473 95.8935 41.9449C96.1609 41.8426 96.4462 41.7935 96.733 41.8005C97.5613 41.8005 98.2614 42.1478 98.2614 43.0735V45.5257H97.5477ZM97.5477 44.111C97.4272 43.9737 97.2767 43.8651 97.1077 43.7934C96.9386 43.7216 96.7553 43.6885 96.5715 43.6966C96.06 43.6966 95.6964 43.9948 95.6964 44.4196C95.6964 44.8444 96.06 45.1411 96.5715 45.1411C96.7552 45.149 96.9383 45.116 97.1073 45.0446C97.2763 44.9731 97.4268 44.8649 97.5477 44.7282V44.111Z" fill="#384B5E"/>
<path d="M105.9 45.5257V43.1853C105.9 42.5891 105.578 42.4012 105.089 42.4012C104.884 42.406 104.683 42.4559 104.5 42.5472C104.318 42.6384 104.158 42.7689 104.033 42.9289V45.5257H103.325V40.5051H104.033V42.4012C104.204 42.2161 104.412 42.0677 104.644 41.9651C104.875 41.8626 105.126 41.8081 105.38 41.8049C106.192 41.8049 106.602 42.197 106.602 42.9647V45.5257H105.9Z" fill="#384B5E"/>
<path d="M113.354 41.799C114.496 41.799 115.206 42.6502 115.206 43.7637V43.9292H112.195C112.218 44.2473 112.367 44.5438 112.608 44.7551C112.85 44.9664 113.166 45.0755 113.489 45.0591C113.905 45.0621 114.308 44.9086 114.614 44.6298L114.946 45.077C114.525 45.4435 113.978 45.6361 113.418 45.6152C112.283 45.6152 111.447 44.8474 111.447 43.7041C111.441 43.454 111.486 43.2052 111.579 42.9726C111.672 42.74 111.812 42.5284 111.99 42.3505C112.168 42.1726 112.381 42.0321 112.615 41.9373C112.85 41.8425 113.101 41.7955 113.354 41.799ZM112.188 43.4387H114.519C114.518 43.2916 114.487 43.1463 114.428 43.0113C114.368 42.8764 114.282 42.7547 114.174 42.6535C114.066 42.5523 113.938 42.4737 113.799 42.4224C113.659 42.3711 113.511 42.3482 113.362 42.355C113.061 42.3477 112.77 42.4574 112.55 42.6604C112.331 42.8633 112.201 43.1434 112.188 43.4402V43.4387Z" fill="#384B5E"/>
<path d="M122.383 45.5257V45.1262C122.221 45.2887 122.027 45.4161 121.813 45.5002C121.598 45.5844 121.369 45.6236 121.138 45.6151C120.509 45.6151 119.815 45.2097 119.815 44.4121C119.815 43.5833 120.5 43.2196 121.138 43.2196C121.651 43.2196 122.092 43.3776 122.383 43.7011V43.1048C122.383 42.6576 121.997 42.3818 121.454 42.3818C121.24 42.3819 121.029 42.4247 120.833 42.5074C120.636 42.5901 120.459 42.7112 120.311 42.8633L120.01 42.3967C120.217 42.2009 120.462 42.0474 120.73 41.9451C120.997 41.8428 121.283 41.7936 121.57 41.8005C122.397 41.8005 123.098 42.1478 123.098 43.0735V45.5257H122.383ZM122.383 44.111C122.262 43.9737 122.112 43.8651 121.943 43.7934C121.774 43.7216 121.591 43.6885 121.407 43.6966C120.894 43.6966 120.532 43.9948 120.532 44.4196C120.532 44.8444 120.894 45.1411 121.407 45.1411C121.59 45.149 121.773 45.116 121.942 45.0446C122.111 44.9731 122.262 44.8649 122.383 44.7282V44.111Z" fill="#384B5E"/>
<path d="M130.877 45.5257V45.0055C130.73 45.1936 130.542 45.3462 130.326 45.4519C130.11 45.5575 129.873 45.6133 129.633 45.6152C128.64 45.6152 127.931 44.9011 127.931 43.7115C127.931 42.522 128.64 41.799 129.633 41.799C129.874 41.8005 130.112 41.8569 130.328 41.964C130.544 42.071 130.732 42.2257 130.877 42.4161V40.5051H131.585V45.5257H130.877ZM130.877 42.9364C130.755 42.7725 130.596 42.6389 130.413 42.546C130.23 42.4532 130.027 42.4036 129.821 42.4012C129.112 42.4012 128.671 42.9513 128.671 43.7115C128.671 44.4718 129.112 45.0129 129.821 45.0129C130.026 45.0122 130.229 44.9642 130.412 44.8729C130.595 44.7816 130.755 44.6493 130.877 44.4867V42.9364Z" fill="#384B5E"/>
<path d="M65.8869 13.9037H59.2964V17.1832H63.3159L63.2872 20.2153C62.2673 21.284 61.0472 22.1471 59.6947 22.7569C58.2706 23.3842 56.7275 23.7044 55.1683 23.696C53.998 23.7014 52.8352 23.5104 51.7297 23.1311H51.7191H51.7086C50.6044 22.7793 49.5653 22.2527 48.6321 21.5718C47.7139 20.9073 46.9143 20.0962 46.2663 19.1718C45.699 18.3717 45.257 17.4918 44.9551 16.5616C44.6507 15.619 44.4979 14.6351 44.5025 13.6458C44.5025 13.5042 44.516 13.1986 44.5794 12.5397C44.6977 11.3844 45.0221 10.259 45.5375 9.21545C46.0419 8.18735 46.7165 7.24971 47.5337 6.44128C48.4987 5.51338 49.6225 4.76187 50.8531 4.22164C52.1774 3.63936 53.6132 3.34599 55.0626 3.36151C56.5573 3.35842 58.0382 3.64244 59.4231 4.19779C60.7871 4.73966 62.0245 5.55132 63.0594 6.58289L63.5724 7.09718L64.1427 6.64997L65.5383 5.54537L66.243 4.98785L65.6047 4.35431C63.2555 2.03181 60.4461 0.627581 57.2519 0.166957C56.5722 0.073325 55.8876 0.0175843 55.2015 0C52.8749 0 50.5619 0.58137 48.3273 1.72771C45.791 3.04697 43.8114 5.0594 42.4429 7.71134V7.72029V7.72923C41.5506 9.54746 41.0864 11.5416 41.085 13.5623C41.0718 14.5788 41.1874 15.5929 41.429 16.581C41.7252 17.7165 42.1472 18.8163 42.6874 19.8605L42.6964 19.8784L42.7055 19.8963C43.6148 21.4847 44.8283 22.8831 46.2783 24.0135C47.7021 25.1303 49.3368 25.9558 51.0869 26.4419C52.4384 26.8413 53.8421 27.0422 55.2528 27.0382C57.5422 27.0342 59.7983 26.4958 61.8372 25.467C62.5141 25.1275 63.1633 24.7368 63.7791 24.2983C64.8096 23.5305 65.7352 22.6341 66.5326 21.6314L66.7092 21.4123V13.9037H65.8869Z" fill="#384B5E"/>
<path d="M104.9 12.7022C104.362 11.4 103.577 10.2114 102.587 9.20055C101.589 8.22652 100.398 7.46546 99.0898 6.96451C96.3896 5.92097 93.3905 5.92097 90.6903 6.96451C89.3827 7.46632 88.193 8.22729 87.1944 9.20055C86.1927 10.1581 85.3927 11.3021 84.8406 12.5665C84.2799 13.8433 83.9917 15.2205 83.9942 16.6123C83.991 17.9975 84.2798 19.3682 84.8421 20.6371C85.4004 21.9006 86.2048 23.0433 87.2094 24.0001C89.2751 25.9677 92.0351 27.0632 94.9044 27.0546C96.6806 27.0686 98.4328 26.6492 100.006 25.8337C101.535 25.0328 102.857 23.8954 103.87 22.5094L104.42 21.7641L103.595 21.3303L101.996 20.4925L101.392 20.1765L100.974 20.7087C100.262 21.6212 99.3564 22.3682 98.3203 22.897C97.2584 23.4298 96.0818 23.7009 94.8908 23.6871C93.0455 23.6871 91.49 23.1251 90.1365 21.9698C88.9819 21.0058 88.1419 19.7257 87.7224 18.2908H105.738L105.786 17.5454L105.827 16.9328V16.8821C105.808 15.4411 105.493 14.0189 104.9 12.7022ZM87.7209 14.8935C88.1409 13.4601 88.9809 12.1815 90.135 11.2189C91.493 10.0577 93.0501 9.4972 94.8953 9.4972C96.7406 9.4972 98.2932 10.0577 99.6481 11.2145C100.803 12.1784 101.643 13.4585 102.062 14.8935H87.7209Z" fill="#384B5E"/>
<path d="M121.912 7.31931C120.586 6.55163 119.073 6.15581 117.537 6.17446C116.331 6.16331 115.138 6.40995 114.038 6.89744C112.646 7.5108 111.448 8.48296 110.568 9.71187C109.718 10.9165 109.27 12.3523 109.284 13.8202V27.0471H112.785V13.8202C112.789 13.2609 112.914 12.7087 113.152 12.2013C113.529 11.3714 114.147 10.671 114.927 10.1894C115.708 9.70779 116.617 9.46683 117.537 9.49721C118.12 9.51169 118.698 9.61476 119.249 9.8028L119.572 9.90417L119.874 9.7551L121.876 8.72354L123.165 8.04975L121.912 7.31931Z" fill="#384B5E"/>
<path d="M144.19 6.16998H141.537V8.85323C140.913 8.24217 140.197 7.72937 139.414 7.33272C137.906 6.56353 136.103 6.17296 134.06 6.17296C132.62 6.16449 131.192 6.43126 129.855 6.95856C128.558 7.47369 127.375 8.23315 126.372 9.19459C125.367 10.1537 124.564 11.3003 124.011 12.568C123.172 14.4839 122.949 16.6086 123.374 18.6537C123.798 20.6988 124.849 22.5654 126.384 24.0001C127.384 24.9562 128.563 25.7111 129.855 26.2228C131.192 26.7504 132.62 27.0172 134.06 27.0083C135.95 27.0083 137.663 26.6014 139.15 25.8009C140.039 25.3168 140.843 24.6964 141.534 23.9629V27.0471H144.997V6.17744L144.19 6.16998ZM134.063 9.49571C135.055 9.49266 136.039 9.6805 136.96 10.0488C137.845 10.3983 138.655 10.913 139.344 11.5648C140.023 12.2224 140.564 13.0071 140.934 13.8732C141.304 14.7392 141.496 15.6693 141.498 16.6093C141.5 17.5507 141.299 18.4817 140.908 19.3402C140.136 21.0739 138.703 22.4366 136.92 23.1326C136.013 23.4991 135.043 23.6869 134.063 23.6856C133.063 23.6878 132.071 23.5001 131.143 23.1326C130.251 22.7853 129.436 22.2699 128.743 21.615C128.069 20.9697 127.532 20.1991 127.161 19.3477C126.781 18.4833 126.585 17.5504 126.588 16.6078C126.591 15.6678 126.782 14.7377 127.152 13.8717C127.522 13.0056 128.063 12.2209 128.743 11.5633C129.436 10.9094 130.251 10.3945 131.143 10.0473C132.072 9.68055 133.063 9.49331 134.063 9.49571Z" fill="#384B5E"/>
<path d="M76.7655 9.48974H79.7182H80.5285V8.6952V6.97345V6.17295H79.7182H76.7655L76.776 0.806464V0H75.9658H74.1311H73.3284V0.788576L73.3194 6.15506H70.9762H70.1599V6.95556V8.67582V9.47632H70.9701H73.3118L73.2741 18.9318V19.7353H73.2847C73.3471 21.0877 73.8 22.3943 74.5898 23.5007C75.4693 24.7298 76.6682 25.7016 78.06 26.3137C78.536 26.5275 79.0323 26.6937 79.5417 26.8101L80.5375 27.0411V23.6588L79.9747 23.4799C79.3569 23.2912 78.7871 22.9739 78.3038 22.5494C77.8205 22.1248 77.4348 21.6029 77.1729 21.0187C76.8711 20.3733 76.7368 19.859 76.7368 19.3999V18.8036L76.7655 9.48974Z" fill="#384B5E"/>
<path d="M18.9839 4.15158V0.00149536L8.40408 0.00149536V4.15158L18.9839 4.15158Z" fill="#EC5F60"/>
<path d="M27.3744 8.31378H23.1739V22.8912H4.20054V0.00317383H0V22.8912V27.0413H4.20054H27.3578H27.3744V8.31378Z" fill="#384B5E"/>
<path d="M18.9748 14.5939C18.0725 14.5943 17.1805 14.4043 16.3585 14.0367C15.5365 13.6691 14.8035 13.1323 14.2084 12.4622H18.9853V8.3121H8.40552C8.40752 11.0803 9.52194 13.7344 11.5038 15.6911C13.4857 17.6478 16.1729 18.7469 18.9748 18.7469H18.9868V14.5939H18.9748Z" fill="#EC5F60"/>
<path d="M9.415 43.7592H0V44.1349H9.415V43.7592Z" fill="#384B5E"/>
<path d="M144.999 43.7592H135.583V44.1349H144.999V43.7592Z" fill="#384B5E"/>
</svg>
