<svg width="127" height="24" viewBox="0 0 127 24" fill="none" xmlns="http://www.w3.org/2000/svg">
<g clip-path="url(#clip0_9:3)">
<path d="M57.5891 12.3393H51.8407V15.2336H55.3473L55.3214 17.9124C54.4323 18.8558 53.3682 19.6172 52.1885 20.1544C50.9442 20.7087 49.5958 20.9909 48.2336 20.9821C47.2129 20.9875 46.1987 20.8194 45.2344 20.4849H45.2243H45.2157C44.2541 20.1725 43.3498 19.7056 42.5384 19.1024C41.7369 18.5166 41.0393 17.8006 40.4747 16.9841C39.9783 16.2796 39.5908 15.5044 39.325 14.6847C39.0575 13.853 38.9222 12.9844 38.9241 12.1108C38.9241 11.9843 38.9355 11.7141 38.9902 11.135C39.0936 10.1123 39.3767 9.11594 39.8266 8.19172C40.2672 7.28614 40.8559 6.46044 41.5683 5.74861C42.4071 4.92915 43.3853 4.26583 44.4569 3.78981C45.6116 3.27146 46.8645 3.00823 48.1301 3.01807C49.4335 3.01591 50.7249 3.26678 51.9327 3.75675C53.1233 4.23657 54.2028 4.95559 55.1044 5.86933L55.5513 6.32346L56.0471 5.92969L57.2644 4.95388L57.8823 4.45519L57.3247 3.89759C55.2768 1.84537 52.8251 0.60226 50.0386 0.199865C49.4516 0.118991 48.8605 0.0710114 48.2681 0.0561523C46.1759 0.0718008 44.1189 0.595567 42.2739 1.58238C40.0608 2.74645 38.3334 4.52418 37.1349 6.86525V6.87244V6.88106C36.3572 8.48625 35.9528 10.2466 35.9521 12.0303C35.9401 12.928 36.041 13.8236 36.2525 14.6962C36.5111 15.6997 36.8793 16.6718 37.3504 17.5948V17.6106L37.359 17.6265C38.1514 19.0315 39.2096 20.2688 40.4747 21.2696C41.7169 22.2551 43.143 22.9835 44.6696 23.4123C47.7894 24.346 51.1494 24.0371 54.0467 22.55C54.637 22.2507 55.203 21.9057 55.7396 21.5182C56.6396 20.8415 57.4474 20.0501 58.1424 19.1642L58.2962 18.9716V12.3393H57.5891Z" fill="#384B5E"/>
<path d="M91.6196 11.2788C91.152 10.1291 90.4692 9.07944 89.6077 8.18606C88.7367 7.32509 87.699 6.65119 86.5582 6.2057C84.2017 5.2856 81.5854 5.2856 79.229 6.2057C78.0854 6.65098 77.0459 7.32707 76.1751 8.19181C75.3015 9.03668 74.604 10.0463 74.1229 11.1624C73.6325 12.2894 73.3805 13.5058 73.3828 14.735C73.3798 15.9597 73.6319 17.1715 74.1229 18.2934C74.6096 19.4047 75.3092 20.41 76.1823 21.2524C77.9824 22.9882 80.3872 23.9556 82.8878 23.9499C84.4388 23.9623 85.969 23.5921 87.3428 22.8721C88.6792 22.1685 89.8361 21.1675 90.7243 19.9461L91.2058 19.2879L90.4872 18.9041L89.0903 18.1626L88.5658 17.8752L88.2008 18.3465C87.5792 19.1515 86.789 19.8108 85.8856 20.278C84.958 20.7517 83.9293 20.9933 82.8878 20.9822C81.3648 21.0135 79.8853 20.4725 78.7418 19.4661C77.7339 18.6155 77.0007 17.4853 76.635 16.2182H92.3482L92.3914 15.5571L92.4259 15.0167V14.9722C92.4105 13.6991 92.1362 12.4424 91.6196 11.2788ZM76.635 13.2131C77.0005 11.9478 77.732 10.8188 78.7375 9.9681C79.8974 8.9872 81.3673 8.44899 82.8864 8.44899C84.4054 8.44899 85.8754 8.9872 87.0353 9.9681C88.0424 10.8191 88.7749 11.9492 89.1406 13.216L76.635 13.2131Z" fill="#384B5E"/>
<path d="M106.459 6.52616C104.844 5.57681 102.932 5.26713 101.1 5.65821C99.2684 6.04929 97.6495 7.11273 96.5631 8.63873C95.8219 9.70157 95.4301 10.9689 95.4422 12.2646V23.9441H98.4975V12.2646C98.5002 11.7709 98.6095 11.2836 98.8179 10.8361C99.1452 10.1022 99.6842 9.48283 100.366 9.05728C101.047 8.63173 101.84 8.41943 102.643 8.44759C103.152 8.461 103.656 8.55212 104.137 8.71778L104.424 8.80831L104.687 8.6646L106.426 7.76065L107.551 7.17286L106.459 6.52616Z" fill="#384B5E"/>
<path d="M125.89 5.51123H123.576V7.87674C123.03 7.33845 122.405 6.88677 121.723 6.53734C120.403 5.85758 118.833 5.5141 117.052 5.5141C115.797 5.50717 114.553 5.74237 113.387 6.2068C112.258 6.66131 111.227 7.33042 110.352 8.1771C109.475 9.02392 108.775 10.036 108.291 11.1548C107.804 12.2829 107.553 13.4987 107.553 14.7275C107.553 15.9563 107.804 17.1721 108.291 18.3002C108.771 19.4156 109.475 20.4204 110.359 21.2521C111.232 22.0965 112.26 22.7633 113.387 23.2152C114.554 23.6804 115.8 23.9156 117.056 23.9079C118.705 23.9079 120.199 23.55 121.495 22.843C122.27 22.4158 122.972 21.8681 123.575 21.2205V23.951H126.593V5.51123H125.89ZM117.058 8.44728C117.923 8.44452 118.781 8.60998 119.584 8.93446C120.357 9.2439 121.062 9.69858 121.664 10.2739C122.257 10.8544 122.729 11.5474 123.051 12.3123C123.374 13.0773 123.541 13.8988 123.542 14.729C123.544 15.5601 123.369 16.3822 123.029 17.1405C122.354 18.671 121.104 19.8741 119.548 20.489C118.758 20.8119 117.912 20.9779 117.058 20.9776C116.185 20.9796 115.321 20.8132 114.511 20.4875C113.732 20.1828 113.021 19.7282 112.417 19.1496C111.829 18.5805 111.36 17.8999 111.038 17.1476C110.705 16.3847 110.535 15.5611 110.538 14.729C110.54 13.8988 110.707 13.0773 111.03 12.3124C111.352 11.5476 111.824 10.8546 112.417 10.2739C113.022 9.69617 113.733 9.24172 114.511 8.9359C115.321 8.61099 116.185 8.4451 117.058 8.44728Z" fill="#384B5E"/>
<path d="M67.0783 8.44154H69.6536H70.3607V7.74023V6.22118V5.51412H69.6536H67.0783L67.087 0.771602V0.0688477H66.3943H64.7876H64.082V0.765854L64.0734 5.50837H62.0298H61.3228V6.21543V7.73448V8.44154H62.0298H64.0734L64.0475 16.7898V17.4983H64.0576C64.1115 18.6923 64.5065 19.8459 65.1957 20.8224C65.9602 21.9064 67.0027 22.7643 68.2136 23.3057C68.6294 23.4943 69.0626 23.6416 69.507 23.7455L70.3693 23.9496V20.9517L69.8793 20.7936C69.3017 20.6066 68.772 20.2956 68.3272 19.8825C67.9542 19.5212 67.6528 19.0926 67.4391 18.6193C67.1789 18.0444 67.0582 17.5946 67.0582 17.1908V16.6705L67.0783 8.44154Z" fill="#384B5E"/>
<path d="M16.6792 3.72622V0.0629883L7.45157 0.0629883V3.72622L16.6792 3.72622Z" fill="#EC5F60"/>
<path d="M23.9966 7.40242H20.332V20.2719H3.78229V0.0644531H0.117676V20.2719V23.9365H3.78229H23.9822H23.9966V7.40242Z" fill="#384B5E"/>
<path d="M16.6702 12.9487C15.8829 12.949 15.1046 12.7813 14.3874 12.4566C13.6701 12.1319 13.0305 11.6578 12.5112 11.0661H16.6788V7.40283H7.45117C7.45232 9.84703 8.42415 12.1907 10.153 13.9185C11.8818 15.6462 14.226 16.6166 16.6702 16.6162H16.6788V12.9487H16.6702Z" fill="#EC5F60"/>
</g>
<defs>
<clipPath id="clip0_9:3">
<rect width="126.609" height="24" fill="white"/>
</clipPath>
</defs>
</svg>
