<svg width="24" height="24" viewBox="0 0 24 24" fill="none" xmlns="http://www.w3.org/2000/svg">
<path d="M23.2406 0.995764H0.75943C0.340022 0.995764 0 1.33579 0 1.75519V17.3336C0 17.753 0.340022 18.0931 0.75943 18.0931H6.3784C6.79781 18.0931 7.13783 17.753 7.13783 17.3336C7.13783 16.9142 6.79781 16.5742 6.3784 16.5742H1.51886V2.51462H22.4811V16.5742H13.463C13.3083 16.5742 13.1574 16.6214 13.0303 16.7096L5.94573 21.6208C5.60105 21.8596 5.51538 22.3328 5.75425 22.6776C5.90168 22.8903 6.13832 23.0044 6.37911 23.0044C6.52836 23.0044 6.67913 22.9606 6.81107 22.8691L13.7004 18.0932H23.2405C23.6599 18.0932 23.9999 17.7531 23.9999 17.3337V1.75519C24 1.33579 23.66 0.995764 23.2406 0.995764Z" fill="white"/>
<path d="M14.8105 7.03242C15.2299 7.03242 15.5699 6.6924 15.5699 6.27299C15.5699 5.85358 15.2299 5.51356 14.8105 5.51356H9.19009C8.77069 5.51356 8.43066 5.85358 8.43066 6.27299C8.43066 6.6924 8.77069 7.03242 9.19009 7.03242H14.8105Z" fill="white"/>
<path d="M5.62036 9.54451C5.62036 9.96392 5.96038 10.3039 6.37979 10.3039H17.6204C18.0398 10.3039 18.3798 9.96392 18.3798 9.54451C18.3798 9.1251 18.0398 8.78508 17.6204 8.78508H6.37979C5.96038 8.78508 5.62036 9.125 5.62036 9.54451Z" fill="white"/>
<path d="M6.37979 13.5752H17.6204C18.0398 13.5752 18.3798 13.2351 18.3798 12.8157C18.3798 12.3963 18.0398 12.0563 17.6204 12.0563H6.37979C5.96038 12.0563 5.62036 12.3963 5.62036 12.8157C5.62036 13.2351 5.96038 13.5752 6.37979 13.5752Z" fill="white"/>
</svg>
