<svg width="25" height="22" viewBox="0 0 25 22" fill="none" xmlns="http://www.w3.org/2000/svg">
<path d="M23.7842 10.0016C23.5573 9.53496 23.1797 9.15848 22.7124 8.93306L3.31212 0.540637C2.16515 -0.0128854 0.786682 0.468246 0.23316 1.61522C-0.0488319 2.19962 -0.0715791 2.87581 0.170565 3.47782L3.2075 11.0352L0.19367 18.6025C-0.275751 19.7896 0.306031 21.1325 1.4931 21.6018C1.76151 21.708 2.04745 21.7629 2.3361 21.7638C2.68532 21.7632 3.02992 21.6839 3.34419 21.5316L22.7187 13.0838C23.864 12.5269 24.3411 11.1469 23.7842 10.0016ZM2.67258 20.1468C2.29076 20.3323 1.83082 20.1733 1.64526 19.7914C1.5507 19.5969 1.54252 19.3716 1.62265 19.1707L4.55684 11.8017L21.8888 11.7783L2.67258 20.1468ZM4.55454 10.2644L1.59785 2.90451C1.47481 2.61114 1.5504 2.27203 1.78639 2.05873C2.0148 1.83548 2.36012 1.78267 2.64475 1.92752L21.8865 10.241L4.55454 10.2644Z" fill="white"/>
</svg>
