<svg width="399" height="451" viewBox="0 0 399 451" fill="none" xmlns="http://www.w3.org/2000/svg">
<path d="M374.163 245.926C357.897 219.376 338.053 194.988 327.739 164.923C311.417 117.338 311.895 39.6634 265.857 10.9991C233.869 -8.92612 191.102 4.53757 159.694 19.204C78.3237 57.2119 46.149 164.923 7.838 255.177C-13.4445 305.314 16.4653 370.553 53.197 409.393C94.8824 453.453 154.436 456.822 209.021 445.427C237.478 439.487 265.178 429.881 292.368 419.239C315.216 410.282 338.941 404.416 359.559 389.925C376.68 377.895 391.167 360.381 396.563 339.241C401.693 319.143 398.231 297.42 390.698 278.208C386.231 266.82 380.465 256.213 374.163 245.926Z" fill="#EBF4FC"/>
</svg>
