<svg width="297" height="451" viewBox="0 0 297 451" fill="none" xmlns="http://www.w3.org/2000/svg">
<path d="M165.517 145.146C163.694 145.146 68.4629 151.485 48.7661 159.057C48.7661 159.057 70.7296 206.973 129.197 206.973C129.197 206.973 140.675 206.973 141.517 218.745C142.544 233.071 143.443 246.717 143.443 259.475C143.443 337.171 135.859 353.214 132.577 362.716C130.708 366.796 128.54 377.048 110.181 384.913C108.779 385.617 85.8007 395.326 75.4188 412.406H219.168C219.168 412.406 214.79 391.61 183.893 381.289C178.246 379.37 155.556 377.71 155.711 259.123C155.711 259.123 155.556 224.012 157.286 218.93C157.517 218.083 160.701 207.013 167.535 207.013C189.084 207.013 229.25 200.945 247.868 159.27C248.387 157.202 239.949 146.172 165.517 145.146Z" fill="#FFCA41"/>
<path d="M129.197 0H0.0117188V38.5628H129.197V0Z" fill="#EC5F60"/>
<path d="M296.721 412.383C296.721 341.101 238.882 283.303 167.524 283.303V321.111C179.522 321.108 191.402 323.468 202.487 328.054C213.573 332.64 223.645 339.362 232.129 347.838C240.613 356.314 247.342 366.377 251.933 377.452C256.524 388.526 258.886 400.396 258.885 412.383H37.8479C37.8479 400.398 40.2107 388.53 44.8015 377.458C49.3923 366.385 56.1212 356.324 64.6038 347.85C73.0865 339.375 83.1568 332.653 94.2398 328.067C105.323 323.481 117.201 321.121 129.197 321.122V283.314C57.8504 283.314 0 341.101 0 412.395V450.957H296.721V412.383Z" fill="#384B5E"/>
<path d="M129.197 77.1484H0.0117188V115.711C0.0117188 186.994 57.8505 244.792 129.209 244.792V206.949C117.212 206.951 105.332 204.593 94.2479 200.007C83.1636 195.422 73.0919 188.7 64.6081 180.226C56.1242 171.751 49.3943 161.69 44.8028 150.616C40.2113 139.543 37.848 127.674 37.848 115.688H129.197V77.1484Z" fill="#EC5F60"/>
<path d="M208.711 167.511C208.711 167.511 194.569 189.668 166.722 201.273C166.722 201.273 143.305 206.396 155.712 259.06C155.712 259.06 155.556 223.949 157.286 218.866C157.517 218.019 160.701 206.949 167.536 206.949C189.084 206.949 229.25 200.882 247.869 159.207C248.388 157.202 219.982 167.511 208.711 167.511Z" fill="#FDBE1C"/>
<path d="M206.496 198.26C223.874 191.817 240.751 175.964 247.868 159.207C248.156 158.095 245.867 165.379 231.084 167.482C231.084 167.482 226.354 185.64 206.496 198.26Z" fill="#F1B008"/>
<path d="M222.323 167.926C206.634 167.827 190.98 166.424 175.524 163.731C173.966 163.316 134.382 155.755 100.399 155.755C100.399 155.755 65.0657 152.816 48.7661 159.034C81.4461 146.576 160.608 145.204 162.39 145.141C162.39 145.141 211.157 144.063 236.125 151.647C237.077 151.94 248.099 154.995 247.764 159.04C247.747 159.34 246.507 167.926 222.323 167.926Z" fill="#FFD770"/>
<path d="M75.4189 412.383H219.168C219.168 412.383 216.18 398.19 197.724 387.432C197.724 387.432 222.306 412.383 75.4189 412.383Z" fill="#727272"/>
<path d="M75.4189 412.383H219.168C219.168 412.383 216.18 398.19 197.724 387.432C197.724 387.432 222.306 412.383 75.4189 412.383Z" fill="#FDBE1C"/>
<path d="M198.3 412.383H219.168C219.168 412.383 218.014 406.845 212.627 400.063C212.627 400.063 216.226 412.383 198.3 412.383Z" fill="#F1B008"/>
<path d="M167.535 77.1484V115.711H258.885C258.878 139.912 249.251 163.12 232.12 180.23C214.99 197.34 191.758 206.951 167.535 206.949V244.757C238.882 244.757 296.732 186.971 296.732 115.677V77.1484H167.535Z" fill="#384B5E"/>
</svg>
